<svg xmlns="http://www.w3.org/2000/svg" viewBox="0 0 64 64">
<defs><clipPath id="c"><circle cx="32" cy="32" r="30"/></clipPath></defs>
<circle cx="32" cy="32" r="30" fill="#ffeef5"/>
<g clip-path="url(#c)">
<path d="M18 62 L32 54 L46 62 L48 68 L16 68 Z" fill="#fdfbf7" stroke="#d8d2c6" stroke-width="2"/>
<path d="M23 60 L32 55 L41 60" fill="none" stroke="#c23b30" stroke-width="1.8"/>
<path d="M9 36 C7 15 22 5 32 5 C42 5 57 15 55 36 C55 43 51 47 48 47 L16 47 C13 47 9 43 9 36Z" fill="#3a3340"/>
<path d="M11 34 C11 44 13 52 15 58 L20 56 C18 49 17 40 17 34Z" fill="#3a3340"/>
<path d="M53 34 C53 44 51 52 49 58 L44 56 C46 49 47 40 47 34Z" fill="#3a3340"/>
<ellipse cx="32" cy="35" rx="15.5" ry="14.5" fill="#ffe9dd"/>
<path d="M17 29 C19 17 26 12 32 12 C38 12 45 17 47 29 C43 27 41 29 38 25 C36 28 33 28 32 28 C30 28 28 27 26 25 C24 28 20 27 17 29Z" fill="#3a3340"/>
<ellipse cx="26" cy="36" rx="2.4" ry="3.4" fill="#43303a"/>
<ellipse cx="38" cy="36" rx="2.4" ry="3.4" fill="#43303a"/>
<circle cx="26.8" cy="34.8" r="1" fill="#fff"/>
<circle cx="38.8" cy="34.8" r="1" fill="#fff"/>
<path d="M23 30 C24.5 29 27 29 28.5 30 M35.5 30 C37 29 39.5 29 41 30" fill="none" stroke="#3a3340" stroke-width="1.6" stroke-linecap="round"/>
<ellipse cx="21.5" cy="41" rx="3" ry="1.8" fill="#f9b8c6" opacity=".8"/>
<ellipse cx="42.5" cy="41" rx="3" ry="1.8" fill="#f9b8c6" opacity=".8"/>
<path d="M30 44.5 C31.3 45.8 32.7 45.8 34 44.5" fill="none" stroke="#c96b6b" stroke-width="1.6" stroke-linecap="round"/>
</g>
<g stroke="#d886ad" stroke-width="1.2">
<g fill="#f7a8c8"><circle cx="46" cy="17" r="2.4"/><circle cx="49.4" cy="19.2" r="2.4"/><circle cx="48" cy="23" r="2.4"/><circle cx="44.2" cy="23" r="2.4"/><circle cx="43" cy="19.2" r="2.4"/></g>
<circle cx="46.2" cy="20.4" r="1.5" fill="#f5c542"/>
</g>
<circle cx="32" cy="32" r="30" fill="none" stroke="#e58cb4" stroke-width="2.5"/>
</svg>
