<svg xmlns="http://www.w3.org/2000/svg" viewBox="0 0 64 64">
<defs>
<linearGradient id="bg" x1="0" y1="0" x2="1" y2="1"><stop offset="0" stop-color="#ffe4ee"/><stop offset="1" stop-color="#f5a3c6"/></linearGradient>
</defs>
<rect width="64" height="64" rx="14" fill="url(#bg)"/>
<circle cx="10" cy="42" r="1.8" fill="#fff" opacity=".55"/>
<circle cx="55" cy="12" r="2" fill="#fff" opacity=".55"/>
<ellipse cx="32" cy="52.5" rx="16" ry="2.2" fill="#5b3a45" opacity=".12"/>
<path d="M14 24 C15 21 18 18.5 21 19.3 C28 16.5 36 16.5 43 19.3 C46 18.5 49 21 50 24 L49 28 C38 24.5 26 24.5 15 28Z" fill="#c23b30" stroke="#5b3a45" stroke-width="2.2" stroke-linejoin="round"/>
<rect x="19" y="32" width="26" height="3.8" fill="#c23b30" stroke="#5b3a45" stroke-width="1.8"/>
<path d="M21 28.5 L23.5 52 L28 52 L29.5 28.5 Z" fill="#d64f42" stroke="#5b3a45" stroke-width="2.2" stroke-linejoin="round"/>
<path d="M43 28.5 L40.5 52 L36 52 L34.5 28.5 Z" fill="#d64f42" stroke="#5b3a45" stroke-width="2.2" stroke-linejoin="round"/>
<rect x="29.5" y="32" width="5" height="7.5" rx="1" fill="#f2e5c9" stroke="#5b3a45" stroke-width="1.8"/>
<g stroke="#d886ad" stroke-width="1.2">
<g fill="#f9b8d4"><circle cx="14" cy="11" r="2.9"/><circle cx="18.1" cy="13.7" r="2.9"/><circle cx="16.4" cy="18.2" r="2.9"/><circle cx="11.6" cy="18.2" r="2.9"/><circle cx="9.9" cy="13.7" r="2.9"/></g>
<circle cx="14" cy="15" r="1.8" fill="#f5c542"/>
</g>
<path d="M49 40 l1.5 3 3 1.5 -3 1.5 -1.5 3 -1.5 -3 -3 -1.5 3 -1.5z" fill="#f5c542"/>
<path d="M46 8 c2.6 1.3 3.9 3.9 3 7 c-2.6 -1.3 -3.9 -3.9 -3 -7z" fill="#f291bd"/>
<path d="M54 22 c1.8 .9 2.7 2.7 2.1 4.9 c-1.8 -.9 -2.7 -2.7 -2.1 -4.9z" fill="#fbc0da"/>
</svg>
