<svg xmlns="http://www.w3.org/2000/svg" viewBox="0 0 64 64">
<defs><radialGradient id="sp"><stop offset="0" stop-color="#ffe9a8" stop-opacity=".9"/><stop offset="1" stop-color="#ffe9a8" stop-opacity="0"/></radialGradient></defs>
<circle cx="32" cy="32" r="27" fill="url(#sp)"/>
<circle cx="32" cy="8" r="2.5" fill="#f5c542" stroke="#d9a441" stroke-width="1.5"/>
<rect x="26" y="11" width="12" height="4" rx="1.5" fill="#7a2f28" stroke="#5b3a45" stroke-width="2"/>
<rect x="20" y="15" width="24" height="30" rx="7" fill="#a5352f" stroke="#5b3a45" stroke-width="2.5"/>
<circle cx="32" cy="30" r="8.5" fill="#eafcff" stroke="#7ab8c9" stroke-width="2"/>
<path d="M32 24 C35 27 36 30 34 33 C33 35 30 35 29 33 C27.5 30 29 27 32 24Z" fill="#7fd9e8" stroke="#4aa8bd" stroke-width="1.5"/>
<circle cx="31" cy="30" r="1.5" fill="#fff"/>
<rect x="24" y="45" width="16" height="4" rx="1.5" fill="#7a2f28" stroke="#5b3a45" stroke-width="2"/>
<path d="M26 49 L24 54 M38 49 L40 54" stroke="#5b3a45" stroke-width="2.2" stroke-linecap="round"/>
<path d="M10 12 l1.8 3.6 3.6 1.8 -3.6 1.8 -1.8 3.6 -1.8 -3.6 -3.6 -1.8 3.6 -1.8z" fill="#f5c542"/>
<path d="M52 16 l1.4 2.8 2.8 1.4 -2.8 1.4 -1.4 2.8 -1.4 -2.8 -2.8 -1.4 2.8 -1.4z" fill="#f5c542"/>
<path d="M50 46 C53 44 55 40 54 36" fill="none" stroke="#a8e4ef" stroke-width="2" stroke-linecap="round" opacity=".8"/>
</svg>
