<svg xmlns="http://www.w3.org/2000/svg" viewBox="0 0 200 80">
<defs>
<linearGradient id="s" x1="0" y1="0" x2="0" y2="1"><stop offset="0" stop-color="#fde8f0"/><stop offset="1" stop-color="#f6cede"/></linearGradient>
<radialGradient id="au"><stop offset="0" stop-color="#ffe9a8" stop-opacity=".8"/><stop offset="1" stop-color="#ffe9a8" stop-opacity="0"/></radialGradient>
</defs>
<rect width="200" height="80" fill="url(#s)"/>
<path d="M0 54 C40 49 160 49 200 54 L200 80 L0 80Z" fill="#a9c48b"/>
<path d="M86 80 C91 66 96 58 100 52 C104 58 110 66 116 80Z" fill="#f0dfb6"/>
<circle cx="160" cy="32" r="26" fill="url(#au)"/>
<g>
<rect x="14" y="30" width="30" height="28" fill="#8a6a52"/>
<path d="M8 32 L29 20 L50 32 L46 35 L29 25 L12 35Z" fill="#5b4a3f"/>
<rect x="18" y="34" width="22" height="9" fill="#3b5a86"/>
<path d="M25 34 V43 M33 34 V43" stroke="#f4f0ea" stroke-width="1.4"/>
<rect x="33" y="46" width="8" height="8" rx="1" fill="#ffd98e"/>
<rect x="18" y="46" width="9" height="12" fill="#6b4a3a"/>
</g>
<path d="M160 58 C160 50 159 46 160 40" stroke="#a97c52" stroke-width="4" fill="none" stroke-linecap="round"/>
<circle cx="160" cy="28" r="15" fill="#f291bd"/>
<circle cx="148" cy="34" r="9" fill="#f291bd"/>
<circle cx="172" cy="33" r="10" fill="#f291bd"/>
<circle cx="155" cy="24" r="6" fill="#fbc0da"/>
<circle cx="168" cy="27" r="4.5" fill="#fbc0da"/>
<circle cx="152" cy="21" r="1.6" fill="#fff" opacity=".9"/>
<path d="M77 27 C88 24 112 24 123 27 L122 32 C110 29 90 29 78 32Z" fill="#c23b30"/>
<rect x="84" y="36" width="32" height="3" fill="#c23b30"/>
<rect x="86" y="32" width="4" height="24" fill="#d64f42"/>
<rect x="110" y="32" width="4" height="24" fill="#d64f42"/>
<rect x="97" y="36" width="6" height="6" rx="1" fill="#f2e5c9"/>
<ellipse cx="100" cy="58" rx="4" ry="1.8" fill="#d9a441"/>
<circle cx="72" cy="42" r="9" fill="#ffd98e" opacity=".5"/>
<rect x="70.5" y="46" width="3" height="12" fill="#6b4a3a"/>
<path d="M67 38 C67 35 77 35 77 38 L76 45 C74 47 70 47 68 45Z" fill="#d64f42"/>
<ellipse cx="72" cy="41" rx="2.4" ry="3" fill="#ffe9a8"/>
<circle cx="128" cy="42" r="9" fill="#ffd98e" opacity=".5"/>
<rect x="126.5" y="46" width="3" height="12" fill="#6b4a3a"/>
<path d="M123 38 C123 35 133 35 133 38 L132 45 C130 47 126 47 124 45Z" fill="#d64f42"/>
<ellipse cx="128" cy="41" rx="2.4" ry="3" fill="#ffe9a8"/>
<path d="M58 16 l1.5 3 3 1.5 -3 1.5 -1.5 3 -1.5 -3 -3 -1.5 3 -1.5z" fill="#f5c542"/>
<path d="M186 12 l1.2 2.4 2.4 1.2 -2.4 1.2 -1.2 2.4 -1.2 -2.4 -2.4 -1.2 2.4 -1.2z" fill="#f5c542"/>
<circle cx="52" cy="30" r="1.5" fill="#f7a8c8"/>
<circle cx="88" cy="18" r="1.4" fill="#f9b8d4"/>
<circle cx="140" cy="14" r="1.5" fill="#f7a8c8"/>
<circle cx="120" cy="46" r="1.3" fill="#f9b8d4"/>
<circle cx="64" cy="52" r="1.6" fill="#f7a8c8"/>
</svg>
